<svg viewBox="0 0 203.51 50.42" xmlns="http://www.w3.org/2000/svg"><g fill="#594aa8"><path d="m56.08 9.9v14.54h-15.61v16.08h-14.51l9.91 9.9h14.48v-16.08h15.65v-14.52l-9.91-9.92z"/><path d="m9.93 9.9h46.16l-9.9-9.9h-46.19v14.56l9.88 9.88 16.06 16.06v-16.06h-16.01z"/><path d="m80.88 23.63h-4v-2h10.2v2h-4v10.5h-2.2z"/><path d="m98.09 29.38a3.76 3.76 0 0 0 3-3.79 3.79 3.79 0 0 0 -1-2.7 5.07 5.07 0 0 0 -3.62-1.26h-5.63v12.5h2.16v-10.53h3.21c1.63 0 2.6.73 2.6 2.08 0 1.27-1 2.1-2.58 2.1h-1.84l4.49 6.33h2.6z"/><path d="m111.71 21.5h-2.05l-5.51 12.63h2.25l4.25-9.99 4.24 9.99h2.33z"/><path d="m120.8 21.59h2l6.71 8.67v-8.67h2.17v12.54h-1.85l-6.83-8.92v8.92h-2.2z"/><path d="m136.26 32.3 1.33-1.57a5.76 5.76 0 0 0 3.95 1.63c1.36 0 2.22-.63 2.22-1.58 0-.89-.5-1.37-2.83-1.91-2.66-.65-4.17-1.44-4.17-3.75 0-2.15 1.79-3.64 4.28-3.64a7 7 0 0 1 4.55 1.52l-1.18 1.66a5.7 5.7 0 0 0 -3.4-1.28c-1.29 0-2 .66-2 1.48 0 1 .58 1.39 3 2 2.65.64 4 1.59 4 3.67 0 2.34-1.85 3.74-4.48 3.74a7.68 7.68 0 0 1 -5.27-1.97z"/><path d="m150 21.59h2.34l3.82 5.93 3.84-5.93h2.35v12.54h-2.2v-9l-4 5.91h-.07l-3.93-5.88v9h-2.15z"/><path d="m166.78 28.81v-7.22h2.22v7.13c0 2.33 1.2 3.58 3.17 3.58s3.15-1.18 3.15-3.49v-7.22h2.21v7.11c0 3.75-2.12 5.63-5.39 5.63s-5.36-1.88-5.36-5.52z"/><path d="m185.05 23.63h-4v-2h10.17v2h-4v10.5h-2.22z"/><path d="m195.01 21.59h8.49v2.01h-8.49z"/><path d="m197.21 32.16v-3.37h6.29v-1.97h-8.49v7.31h8.49v-1.97z"/></g></svg>